<?xml version="1.0" encoding="utf-8"?>
<!-- Generator: Adobe Illustrator 19.0.0, SVG Export Plug-In . SVG Version: 6.00 Build 0)  -->
<svg version="1.1" id="Calque_1" xmlns="http://www.w3.org/2000/svg" xmlns:xlink="http://www.w3.org/1999/xlink" x="0px" y="0px"
	 viewBox="0 0 45 200" style="enable-background:new 0 0 45 200;" xml:space="preserve">
<g id="XMLID_1_">
	<path id="XMLID_35_" d="M1.5,2.5c0,0,0.6,0.6,1.7,1.7c0.6,0.6,1.3,1.3,2.1,2.1c0.4,0.4,0.9,0.8,1.3,1.3c0.4,0.5,0.9,1,1.4,1.6
		c1,1.1,2.1,2.3,3.3,3.7c1.1,1.4,2.4,2.9,3.7,4.5c1.3,1.6,2.6,3.5,4,5.3c0.7,0.9,1.4,1.9,2,3c0.7,1,1.4,2.1,2.1,3.2
		c1.4,2.2,2.7,4.5,4.1,6.9c0.6,1.2,1.3,2.5,1.9,3.8c0.7,1.3,1.3,2.6,1.9,3.9c0.6,1.3,1.2,2.7,1.8,4.1c0.6,1.4,1.1,2.8,1.7,4.3
		c0.3,0.7,0.6,1.4,0.9,2.2c0.3,0.7,0.5,1.5,0.8,2.2c0.5,1.5,1,3,1.5,4.6c1.8,6.2,3.4,12.7,4.4,19.4c1,6.7,1.5,13.6,1.6,20.5
		c-0.1,6.9-0.6,13.8-1.6,20.5c-1,6.7-2.6,13.2-4.4,19.4c-0.5,1.5-1,3-1.5,4.6c-0.3,0.7-0.5,1.5-0.8,2.2c-0.3,0.7-0.6,1.5-0.9,2.2
		c-0.6,1.4-1.1,2.9-1.7,4.3c-0.6,1.4-1.2,2.7-1.8,4.1c-0.6,1.4-1.2,2.7-1.9,3.9c-0.7,1.3-1.3,2.5-1.9,3.8c-1.4,2.4-2.7,4.7-4.1,6.9
		c-0.7,1.1-1.4,2.1-2.1,3.2c-0.7,1-1.3,2-2,3c-1.4,1.9-2.7,3.7-4,5.3c-1.3,1.6-2.5,3.1-3.7,4.5c-1.2,1.3-2.3,2.6-3.3,3.7
		c-0.5,0.6-1,1.1-1.4,1.6c-0.5,0.5-0.9,0.9-1.3,1.3c-0.8,0.8-1.5,1.5-2.1,2.1c-1.1,1.1-1.7,1.7-1.7,1.7s0.6-0.6,1.6-1.8
		c0.5-0.6,1.2-1.3,2-2.2c0.4-0.4,0.8-0.9,1.2-1.4c0.4-0.5,0.9-1.1,1.3-1.6c0.9-1.2,2-2.4,3.1-3.8c1.1-1.4,2.2-3,3.4-4.7
		c2.4-3.4,4.9-7.3,7.5-11.7c1.3-2.2,2.5-4.6,3.8-7c0.6-1.2,1.2-2.5,1.8-3.8c0.6-1.3,1.2-2.6,1.8-3.9c0.6-1.3,1.1-2.7,1.7-4.1
		c0.6-1.4,1-2.8,1.6-4.2c1.1-2.8,1.9-5.9,2.9-8.9c1.7-6.1,3.1-12.5,4.1-19.1c0.9-6.6,1.4-13.3,1.4-20.1c0-6.7-0.5-13.5-1.4-20.1
		c-1-6.6-2.4-13-4.1-19.1c-1-3-1.8-6-2.9-8.9c-0.5-1.4-1-2.9-1.6-4.2c-0.6-1.4-1.1-2.7-1.7-4.1c-0.5-1.4-1.2-2.6-1.8-3.9
		c-0.6-1.3-1.2-2.5-1.8-3.8c-1.3-2.4-2.5-4.8-3.8-7c-2.6-4.4-5.1-8.3-7.5-11.7c-1.2-1.7-2.4-3.2-3.4-4.7C9.6,12,8.6,10.7,7.6,9.5
		C7.2,9,6.7,8.4,6.3,7.9c-0.4-0.5-0.9-1-1.2-1.4c-0.8-0.9-1.4-1.6-2-2.2C2,3.1,1.5,2.5,1.5,2.5z"/>
</g>
<g id="XMLID_8_">
</g>
<g id="XMLID_9_">
</g>
<g id="XMLID_30_">
</g>
<g id="XMLID_31_">
</g>
<g id="XMLID_32_">
</g>
<g id="XMLID_33_">
</g>
<g id="XMLID_36_">
</g>
<g id="XMLID_37_">
</g>
<g id="XMLID_38_">
</g>
<g id="XMLID_39_">
</g>
<g id="XMLID_40_">
</g>
<g id="XMLID_41_">
</g>
<g id="XMLID_42_">
</g>
<g id="XMLID_43_">
</g>
<g id="XMLID_44_">
</g>
</svg>
